<?xml version="1.0" encoding="iso-8859-1"?>
<!-- Uploaded to: SVG Repo, www.svgrepo.com, Generator: SVG Repo Mixer Tools -->
<svg fill="#000000" version="1.1" id="Layer_1" xmlns="http://www.w3.org/2000/svg" xmlns:xlink="http://www.w3.org/1999/xlink" 
	 viewBox="0 0 496 496" xml:space="preserve">
<g>
	<g>
		<g>
			<path d="M284.28,333.316l-4.28-6.424l-4.28,6.424h-144l-42.664,64H128v96h240v-96h38.952l-42.672-64H284.28z M118.952,381.316
				l21.328-32h124.768l-21.336,32H118.952z M272,477.316H144v-80h108.28L272,367.74V477.316z M352,477.316h-64V367.74l19.72,29.576
				H352V477.316z M316.288,381.316l-21.336-32h60.768l21.336,32H316.288z"/>
			<path d="M137.752,269.316H192v-32h16v48h16v-48h16v80h16v-80h16v48h16v-48h16v32h54.248l8.064-32.248
				c1.12-4.488,1.688-9.112,1.688-13.736c0-18.968-9.424-36.576-25.208-47.104L320,161.036v-48.16
				c0-29.992-12.944-58.512-35.512-78.272L248,2.684l-36.488,31.92C188.944,54.364,176,82.884,176,112.876v48.16l-22.792,15.192
				C137.424,186.756,128,204.364,128,223.332c0,4.624,0.568,9.248,1.688,13.728L137.752,269.316z M320,237.316v-8V180.26l13.92,9.28
				c11.328,7.544,18.08,20.176,18.08,33.792c0,3.32-0.408,6.632-1.216,9.848l-5.032,20.136H320V237.316z M192,112.876
				c0-25.376,10.952-49.512,30.056-66.224L248,23.948l25.944,22.704C293.048,63.364,304,87.5,304,112.876v108.44H192V112.876z
				 M162.08,189.54l13.92-9.28v49.056v8v16h-25.752l-5.032-20.144c-0.808-3.208-1.216-6.52-1.216-9.84
				C144,209.724,150.76,197.092,162.08,189.54z"/>
			<path d="M248,69.316c-22.056,0-40,17.944-40,40c0,22.056,17.944,40,40,40c22.056,0,40-17.944,40-40
				C288,87.26,270.056,69.316,248,69.316z M248,133.316c-13.232,0-24-10.768-24-24s10.768-24,24-24s24,10.768,24,24
				S261.232,133.316,248,133.316z"/>
			<rect x="272" y="301.316" width="16" height="16"/>
			<rect x="208" y="301.316" width="16" height="16"/>
			<path d="M456,273.316v-20c0-22.056-17.944-40-40-40c-22.056,0-40,17.944-40,40v24h16v-24c0-13.232,10.768-24,24-24
				s24,10.768,24,24v20c0,15.44-12.56,28-28,28h-20v16h20C436.264,317.316,456,297.572,456,273.316z"/>
			<rect x="360" y="301.316" width="16" height="16"/>
			<path d="M304,285.316v8c0,13.232,10.768,24,24,24h16v-16h-16c-4.408,0-8-3.584-8-8v-8H304z"/>
			<rect x="408" y="261.316" width="16" height="16"/>
			<path d="M456,317.316c-22.056,0-40,17.944-40,40v24h16v-24c0-13.232,10.768-24,24-24s24,10.768,24,24v20c0,15.44-12.56,28-28,28
				h-36v16h36c24.264,0,44-19.744,44-44v-20C496,335.26,478.056,317.316,456,317.316z"/>
			<rect x="448" y="365.316" width="16" height="16"/>
			<path d="M192,293.316v-8h-16v8c0,4.416-3.592,8-8,8H84c-15.44,0-28-12.56-28-28v-20c0-13.232,10.768-24,24-24s24,10.768,24,24v24
				h16v-24c0-22.056-17.944-40-40-40c-22.056,0-40,17.944-40,40v20c0,24.256,19.736,44,44,44h84
				C181.232,317.316,192,306.548,192,293.316z"/>
			<rect x="72" y="261.316" width="16" height="16"/>
			<path d="M40,317.316c-22.056,0-40,17.944-40,40v20c0,24.256,19.736,44,44,44h4v-16h-4c-15.44,0-28-12.56-28-28v-20
				c0-13.232,10.768-24,24-24s24,10.768,24,24v24h16v-24C80,335.26,62.056,317.316,40,317.316z"/>
			<rect x="64" y="405.316" width="16" height="16"/>
			<rect x="32" y="365.316" width="16" height="16"/>
		</g>
	</g>
</g>
</svg>