<?xml version="1.0" encoding="iso-8859-1"?>
<!-- Uploaded to: SVG Repo, www.svgrepo.com, Generator: SVG Repo Mixer Tools -->
<svg fill="#000000" version="1.1" id="Capa_1" xmlns="http://www.w3.org/2000/svg" xmlns:xlink="http://www.w3.org/1999/xlink" 
	 viewBox="0 0 60 60" xml:space="preserve">
<g>
	<g>
		<path d="M5,46V24.1C5,12.1,15.1,2,27,2V0C14,0,3,11,3,24.1V47c0,0.6,0.4,1,1,1h21v12h2V48h4v-2h-5H5z"/>
		<path d="M13,23v8c0,0.6,0.4,1,1,1h4v-2h-3v-7H13z"/>
		<path d="M54,53v-3c0-0.6-0.4-1-1-1h-2V33h2c0.6,0,1-0.4,1-1V16c0-0.6-0.4-1-1-1h-6c-0.6,0-1,0.4-1,1v7h-2v-7c0-0.6-0.4-1-1-1h-6
			c-0.6,0-1,0.4-1,1v16c0,0.6,0.4,1,1,1h2v16h-2c-0.6,0-1,0.4-1,1v3c-1.7,0-3,1.3-3,3v3c0,0.6,0.4,1,1,1h22c0.6,0,1-0.4,1-1v-3
			C57,54.3,55.7,53,54,53z M38,31V17h4v6h-2v2h3h4h3v-2h-2v-6h4v14h-2c-0.6,0-1,0.4-1,1v3h-8v-2h3v-2h-4H38z M41,37h8v12h-8V37z
			 M38,51h2h10h2v2H38V51z M55,58H35v-2c0-0.6,0.4-1,1-1h1h16h1c0.6,0,1,0.4,1,1V58z"/>
		<path d="M22.7,16.7L34,5.4l6.3,6.3c0.4,0.4,1,0.4,1.4,0L50,3.4V6h2V1c0-0.6-0.4-1-1-1h-5v2h2.6L41,9.6l-6.3-6.3
			c-0.4-0.4-1-0.4-1.4,0l-12,12L22.7,16.7z"/>
		<rect x="40" y="27" width="2" height="2"/>
		<rect x="44" y="27" width="2" height="2"/>
		<rect x="48" y="27" width="2" height="2"/>
	</g>
</g>
</svg>